<svg width="47" height="46" viewBox="0 0 47 46" fill="none" xmlns="http://www.w3.org/2000/svg">
<g clip-path="url(#clip0_2641_161879)">
<path d="M46.1667 23.1719C46.1667 10.7455 36.0932 0.671875 23.6667 0.671875C11.2403 0.671875 1.16675 10.7455 1.16675 23.1719C1.16675 35.5983 11.2403 45.6719 23.6667 45.6719C36.0932 45.6719 46.1667 35.5983 46.1667 23.1719Z" fill="#EB6743"/>
<path d="M36.4714 14.3438L25.2214 9.65626C24.8698 9.53907 24.5183 9.48047 24.1667 9.48047C23.7565 9.48047 23.405 9.53907 23.0534 9.65626L11.8034 14.3438C10.7487 14.8125 10.1042 15.8086 10.1042 16.9219C10.1042 28.5821 16.7839 36.6094 23.0534 39.2461C23.7565 39.5391 24.5183 39.5391 25.2214 39.2461C30.2605 37.1367 38.2292 29.9297 38.2292 16.9219C38.2292 15.8086 37.5261 14.8125 36.4714 14.3438ZM24.5183 37.4883C24.2839 37.6055 23.9909 37.6055 23.7565 37.4883C18.0729 35.2031 11.9792 27.2344 11.9792 16.9219C11.9792 16.5703 12.155 16.2188 12.5065 16.1016L23.7565 11.4141C23.9909 11.2969 24.2839 11.2969 24.5183 11.4141L35.7683 16.1016C36.1198 16.2188 36.2956 16.5703 36.2956 16.9219C36.3542 27.2344 30.2605 35.2031 24.5183 37.4883Z" fill="white"/>
<path d="M28.4109 19.0082L20.7059 26.7133L17.8934 23.8715C17.7469 23.7543 17.5125 23.7543 17.3953 23.8715L16.5457 24.7211C16.4285 24.8383 16.4285 25.0727 16.5457 25.2192L20.4715 29.1157C20.618 29.2621 20.823 29.2621 20.9695 29.1157L29.7586 20.3266C29.8758 20.2094 29.8758 19.975 29.7586 19.8285L28.909 19.0082C28.7918 18.8618 28.5574 18.8618 28.4109 19.0082Z" fill="white"/>
</g>
<defs>
<clipPath id="clip0_2641_161879">
<rect width="46" height="45" fill="white" transform="translate(0.666748 0.671875)"/>
</clipPath>
</defs>
</svg>
