<svg width="47" height="46" viewBox="0 0 47 46" fill="none" xmlns="http://www.w3.org/2000/svg">
<g clip-path="url(#clip0_2641_161859)">
<path d="M46 23.1719C46 10.7455 35.9264 0.671875 23.5 0.671875C11.0736 0.671875 1 10.7455 1 23.1719C1 35.5983 11.0736 45.6719 23.5 45.6719C35.9264 45.6719 46 35.5983 46 23.1719Z" fill="#EB6743"/>
<path d="M29.1875 15.5469C30.3047 15.5469 31.25 14.6446 31.25 13.4844C31.25 12.3672 30.3047 11.4219 29.1875 11.4219C28.0273 11.4219 27.125 12.3672 27.125 13.4844C27.125 14.6446 28.0273 15.5469 29.1875 15.5469ZM29.1875 12.7969C29.5312 12.7969 29.875 13.1407 29.875 13.4844C29.875 13.8711 29.5312 14.1719 29.1875 14.1719C28.8008 14.1719 28.5 13.8711 28.5 13.4844C28.5 13.1407 28.8008 12.7969 29.1875 12.7969ZM21.625 16.9219C23.1289 16.9219 24.375 15.7188 24.375 14.1719C24.375 12.668 23.1289 11.4219 21.625 11.4219C20.0781 11.4219 18.875 12.668 18.875 14.1719C18.875 15.7188 20.0781 16.9219 21.625 16.9219ZM21.625 12.7969C22.3555 12.7969 23 13.4414 23 14.1719C23 14.9453 22.3555 15.5469 21.625 15.5469C20.8516 15.5469 20.25 14.9453 20.25 14.1719C20.25 13.4414 20.8516 12.7969 21.625 12.7969ZM27.125 23.1094H18.875C16.9414 23.1094 15.4375 24.6563 15.4375 26.5469C15.4375 28.4805 16.9414 29.9844 18.875 29.9844H27.125C29.0156 29.9844 30.5625 28.4805 30.5625 26.5469C30.5625 24.6563 29.0156 23.1094 27.125 23.1094ZM27.125 28.6094H18.875C17.7148 28.6094 16.8125 27.7071 16.8125 26.5469C16.8125 25.4297 17.7148 24.4844 18.875 24.4844H27.125C28.2422 24.4844 29.1875 25.4297 29.1875 26.5469C29.1875 27.7071 28.2422 28.6094 27.125 28.6094ZM29.875 19.6719H28.5C28.5 18.168 27.2539 16.9219 25.75 16.9219C24.2031 16.9219 23 18.168 23 19.6719H16.125C13.8477 19.6719 12 21.5625 12 23.7969V29.2969C12 31.5742 13.8477 33.4219 16.125 33.4219H29.875C32.1094 33.4219 34 31.5742 34 29.2969V23.7969C34 21.5625 32.1094 19.6719 29.875 19.6719ZM25.75 18.2969C26.4805 18.2969 27.125 18.9414 27.125 19.6719C27.125 20.4453 26.4805 21.0469 25.75 21.0469C24.9766 21.0469 24.375 20.4453 24.375 19.6719C24.375 18.9414 24.9766 18.2969 25.75 18.2969ZM32.625 29.2969C32.582 30.8438 31.3789 32.0469 29.875 32.0469H16.125C14.5781 32.0469 13.375 30.8438 13.375 29.2969V23.7969C13.375 22.293 14.5781 21.0899 16.125 21.0469H23.3438C23.8164 21.9063 24.7188 22.4649 25.75 22.4649C26.7383 22.4649 27.6406 21.9063 28.1133 21.0469H29.875C31.3789 21.0899 32.582 22.293 32.625 23.7969V29.2969Z" fill="white"/>
</g>
<defs>
<clipPath id="clip0_2641_161859">
<rect width="46" height="45" fill="white" transform="translate(0.5 0.671875)"/>
</clipPath>
</defs>
</svg>
