<svg width="46" height="46" viewBox="0 0 46 46" fill="none" xmlns="http://www.w3.org/2000/svg">
<g clip-path="url(#clip0_2641_161886)">
<path d="M45.5 23.1719C45.5 10.7455 35.4264 0.671875 23 0.671875C10.5736 0.671875 0.5 10.7455 0.5 23.1719C0.5 35.5983 10.5736 45.6719 23 45.6719C35.4264 45.6719 45.5 35.5983 45.5 23.1719Z" fill="#EB6743"/>
<path d="M29.6874 22.4219C29.3007 22.4219 28.9999 22.7657 28.9999 23.1094C28.9999 23.4961 29.3007 23.7969 29.6874 23.7969C30.0311 23.7969 30.3749 23.4961 30.3749 23.1094C30.3749 22.7657 30.0311 22.4219 29.6874 22.4219ZM35.1874 21.0469H33.8983C33.4257 19.9727 32.6522 19.0703 31.7499 18.3399V15.5469H31.0624C29.7304 15.5469 28.5702 16.0196 27.5819 16.7071C27.5819 16.5352 27.6249 16.4063 27.6249 16.2344C27.6249 13.6133 25.4335 11.4219 22.8124 11.4219C20.1483 11.4219 17.9999 13.6133 17.9999 16.2344C17.9999 16.6641 18.0429 17.0508 18.1718 17.4375C16.0663 18.2969 14.4765 20.1446 14.0038 22.4219H13.5311C12.8866 22.4219 12.371 21.8633 12.4999 21.2188C12.5858 20.7031 13.0585 20.3594 13.5741 20.3594H13.6171C13.746 20.3594 13.8749 20.2735 13.8749 20.1016V19.2422C13.8749 19.1133 13.746 18.9844 13.6171 18.9844C12.371 18.9844 11.2968 19.8867 11.1249 21.0899C10.953 22.5508 12.0702 23.7969 13.5311 23.7969H13.8749C13.8749 26.0742 14.9491 28.0508 16.6249 29.2969V32.7344C16.6249 33.1211 16.9257 33.4219 17.3124 33.4219H22.1249C22.4687 33.4219 22.8124 33.1211 22.8124 32.7344V30.6719H25.5624V32.7344C25.5624 33.1211 25.8632 33.4219 26.2499 33.4219H31.0624C31.4061 33.4219 31.7499 33.1211 31.7499 32.7344V29.2969C32.2226 28.9102 32.6952 28.4375 33.0819 27.9219H35.1874C35.5311 27.9219 35.8749 27.6211 35.8749 27.2344V21.7344C35.8749 21.3907 35.5311 21.0469 35.1874 21.0469ZM22.8124 12.7969C24.703 12.7969 26.2499 14.3438 26.2499 16.2344C26.2499 16.4922 26.2069 16.7071 26.164 16.9219H20.7499C20.2772 16.9219 19.8905 17.0078 19.4608 17.0508C19.3749 16.793 19.3749 16.5352 19.3749 16.2344C19.3749 14.3438 20.8788 12.7969 22.8124 12.7969ZM34.4999 26.5469H32.3944C31.664 27.5352 31.664 27.6211 30.3749 28.6094V32.0469H26.9374V29.2969H21.4374V32.0469H17.9999V28.6094C15.2069 26.5039 15.2499 24.5703 15.2499 23.7969C15.2499 20.7891 17.6991 18.2969 20.7499 18.2969H27.6679C28.3983 17.7383 29.0858 17.1797 30.3749 17.0078V19.0274C32.0507 20.3164 32.2655 20.7031 32.996 22.4219H34.4999V26.5469Z" fill="white"/>
</g>
<defs>
<clipPath id="clip0_2641_161886">
<rect width="46" height="45" fill="white" transform="translate(0 0.671875)"/>
</clipPath>
</defs>
</svg>
