<svg width="47" height="46" viewBox="0 0 47 46" fill="none" xmlns="http://www.w3.org/2000/svg">
<g clip-path="url(#clip0_2641_161852)">
<path d="M46 23.1719C46 10.7455 35.9264 0.671875 23.5 0.671875C11.0736 0.671875 1 10.7455 1 23.1719C1 35.5983 11.0736 45.6719 23.5 45.6719C35.9264 45.6719 46 35.5983 46 23.1719Z" fill="#EB6743"/>
<path d="M35.3047 13.3438L24.0547 8.65626C23.7031 8.53907 23.3516 8.48047 23 8.48047C22.5898 8.48047 22.2383 8.53907 21.8867 8.65626L10.6367 13.3438C9.58203 13.8125 8.9375 14.8086 8.9375 15.9219C8.9375 27.5821 15.6172 35.6094 21.8867 38.2461C22.5898 38.5391 23.3516 38.5391 24.0547 38.2461C29.0938 36.1367 37.0625 28.9297 37.0625 15.9219C37.0625 14.8086 36.3594 13.8125 35.3047 13.3438ZM23.3516 36.4883C23.1172 36.6055 22.8242 36.6055 22.5898 36.4883C16.9062 34.2031 10.8125 26.2344 10.8125 15.9219C10.8125 15.5703 10.9883 15.2188 11.3398 15.1016L22.5898 10.4141C22.8242 10.2969 23.1172 10.2969 23.3516 10.4141L34.6016 15.1016C34.9531 15.2188 35.1289 15.5703 35.1289 15.9219C35.1875 26.2344 29.0938 34.2031 23.3516 36.4883Z" fill="white"/>
<path d="M28.9062 17.5157C28.1562 16.7969 26.9062 16.6719 25.9688 17.6094C25.9375 15.9844 24.625 14.6719 23 14.6719C21.3438 14.6719 20.0312 15.9844 20 17.6094C19.0312 16.6719 17.8125 16.7969 17.0625 17.5157C16.2812 18.2969 16.2812 19.5781 17.0625 20.3594L19.5 22.7657V28.9219C19.5 29.8907 20.2812 30.6719 21.25 30.6719H21.75C22.2188 30.6719 22.6562 30.4844 23 30.1719C23.3125 30.4844 23.75 30.6719 24.25 30.6719H24.75C25.6875 30.6719 26.5 29.8907 26.5 28.9219V22.7657L28.9062 20.3594C29.6875 19.5781 29.6875 18.2969 28.9062 17.5157ZM23 15.6719C24.0938 15.6719 25 16.5781 25 17.6719C25 18.7969 24.0938 19.6719 23 19.6719C21.875 19.6719 21 18.7969 21 17.6719C21 16.5781 21.875 15.6719 23 15.6719ZM28.1875 19.6407L25.5 22.3594V28.9219C25.5 29.3594 25.1562 29.6719 24.75 29.6719H24.25C23.8125 29.6719 23.5 29.3594 23.5 28.9219V25.4219H22.5V28.9219C22.5 29.3594 22.1562 29.6719 21.75 29.6719H21.25C20.8125 29.6719 20.5 29.3594 20.5 28.9219V22.3594L17.7812 19.6407C17.375 19.2657 17.375 18.6094 17.7812 18.2344C18.1562 17.8281 18.8125 17.8281 19.1875 18.2344L21.6562 20.6719H24.3125L26.7812 18.2344C27.1562 17.8281 27.8125 17.8281 28.1875 18.2344C28.5938 18.6094 28.5938 19.2657 28.1875 19.6407Z" fill="white"/>
</g>
<defs>
<clipPath id="clip0_2641_161852">
<rect width="46" height="45" fill="white" transform="translate(0.5 0.671875)"/>
</clipPath>
</defs>
</svg>
