<svg width="47" height="46" viewBox="0 0 47 46" fill="none" xmlns="http://www.w3.org/2000/svg">
<g clip-path="url(#clip0_2641_161892)">
<path d="M45.8333 23.1719C45.8333 10.7455 35.7597 0.671875 23.3333 0.671875C10.9068 0.671875 0.833252 10.7455 0.833252 23.1719C0.833252 35.5983 10.9068 45.6719 23.3333 45.6719C35.7597 45.6719 45.8333 35.5983 45.8333 23.1719Z" fill="#EB6743"/>
<path d="M34.1457 18.8121L27.8723 17.9098L25.0363 12.1949C24.5637 11.2067 23.1027 11.1637 22.5871 12.1949L19.7941 17.9098L13.4777 18.8121C12.3605 18.984 11.9309 20.359 12.7473 21.1754L17.259 25.6012L16.1848 31.8317C16.0129 32.9488 17.216 33.8082 18.2043 33.2926L23.8332 30.3277L29.4191 33.2926C30.4074 33.8082 31.6105 32.9488 31.4387 31.8317L30.3644 25.6012L34.8762 21.1754C35.6926 20.359 35.2629 18.984 34.1457 18.8121ZM28.8605 25.0856L30.0637 32.0465L23.8332 28.7809L17.5598 32.0465L18.7629 25.0856L13.6926 20.1871L20.6965 19.1559L23.8332 12.7965L26.927 19.1559L33.9309 20.1871L28.8605 25.0856Z" fill="white"/>
</g>
<defs>
<clipPath id="clip0_2641_161892">
<rect width="46" height="45" fill="white" transform="translate(0.333252 0.671875)"/>
</clipPath>
</defs>
</svg>
