<svg width="47" height="46" viewBox="0 0 47 46" fill="none" xmlns="http://www.w3.org/2000/svg">
<g clip-path="url(#clip0_2641_161845)">
<path d="M46 23.1719C46 10.7455 35.9264 0.671875 23.5 0.671875C11.0736 0.671875 1 10.7455 1 23.1719C1 35.5983 11.0736 45.6719 23.5 45.6719C35.9264 45.6719 46 35.5983 46 23.1719Z" fill="#EB6743"/>
<path d="M35.3047 13.3438L24.0547 8.65626C23.7031 8.53907 23.3516 8.48047 23 8.48047C22.5898 8.48047 22.2383 8.53907 21.8867 8.65626L10.6367 13.3438C9.58203 13.8125 8.9375 14.8086 8.9375 15.9219C8.9375 27.5821 15.6172 35.6094 21.8867 38.2461C22.5898 38.5391 23.3516 38.5391 24.0547 38.2461C29.0938 36.1367 37.0625 28.9297 37.0625 15.9219C37.0625 14.8086 36.3594 13.8125 35.3047 13.3438ZM23.3516 36.4883C23.1172 36.6055 22.8242 36.6055 22.5898 36.4883C16.9062 34.2031 10.8125 26.2344 10.8125 15.9219C10.8125 15.5703 10.9883 15.2188 11.3398 15.1016L22.5898 10.4141C22.8242 10.2969 23.1172 10.2969 23.3516 10.4141L34.6016 15.1016C34.9531 15.2188 35.1289 15.5703 35.1289 15.9219C35.1875 26.2344 29.0938 34.2031 23.3516 36.4883Z" fill="white"/>
<path d="M23.9062 15.3907C23.7812 14.9219 23.375 14.6719 22.9688 14.6719C22.5938 14.6719 22.2188 14.9219 22.0625 15.3907C20.625 20.2969 17.5 21.6407 17.5 25.1094C17.5 28.2031 19.9375 30.6719 23 30.6719C26.0312 30.6719 28.5 28.2031 28.5 25.1094C28.5 21.6407 25.375 20.3281 23.9062 15.3907ZM23 29.6719C20.5 29.6719 18.5 27.6407 18.5 25.1094C18.5 23.6094 19.2188 22.5781 20.1875 21.1407C21.125 19.8594 22.25 18.2344 23 15.8281C23.7188 18.2344 24.875 19.8594 25.7812 21.1719C26.7812 22.5781 27.5 23.6094 27.5 25.1094C27.5 27.6407 25.4688 29.6719 23 29.6719ZM23 27.6719C21.5938 27.6719 20.5 26.5781 20.5 25.1719C20.5 24.9219 20.25 24.6719 20 24.6719C19.7188 24.6719 19.5 24.9219 19.5 25.1719C19.5 27.1094 21.0625 28.6719 23 28.6719C23.25 28.6719 23.5 28.4531 23.5 28.1719C23.5 27.9219 23.25 27.6719 23 27.6719Z" fill="white"/>
</g>
<defs>
<clipPath id="clip0_2641_161845">
<rect width="46" height="45" fill="white" transform="translate(0.5 0.671875)"/>
</clipPath>
</defs>
</svg>
