<svg width="47" height="46" viewBox="0 0 47 46" fill="none" xmlns="http://www.w3.org/2000/svg">
<g clip-path="url(#clip0_2641_161839)">
<path d="M46 23.1719C46 10.7455 35.9264 0.671875 23.5 0.671875C11.0736 0.671875 1 10.7455 1 23.1719C1 35.5983 11.0736 45.6719 23.5 45.6719C35.9264 45.6719 46 35.5983 46 23.1719Z" fill="#EB6743"/>
<path d="M24.9336 29.3955C27.082 27.247 27.082 23.6806 24.9336 21.4892C24.375 20.9736 23.7734 20.5869 23.1289 20.2861C22.8711 20.2001 22.5273 20.329 22.4414 20.6298C22.3984 20.8447 22.3555 21.0595 22.3125 21.2744C22.3125 21.4892 22.4414 21.704 22.6562 21.79C23.0859 21.9619 23.4727 22.2626 23.8164 22.6064C25.4062 24.1533 25.4062 26.7314 23.8594 28.2783L23.8164 28.3212L20.4219 31.7158C18.832 33.3056 16.2969 33.3056 14.707 31.7158C13.1172 30.1259 13.1172 27.5908 14.707 26.0009C14.707 26.0009 17.2422 23.4658 17.9297 22.7783C18.0586 22.6494 18.1016 22.4775 18.1016 22.3486C18.0586 22.1337 18.0586 21.9189 18.0586 21.704C18.0156 21.2744 17.5 21.0595 17.1562 21.3603C17.1133 21.4033 17.0703 21.4462 17.0273 21.4892L13.6328 24.9267C11.4414 27.0751 11.4414 30.6416 13.6328 32.79C15.7812 34.9814 19.3477 34.9814 21.4961 32.79L24.9336 29.3955ZM21.0234 25.3994C21.582 25.915 22.1836 26.3017 22.8281 26.6025C23.0859 26.6884 23.4297 26.5595 23.5156 26.2587C23.5586 26.0439 23.6016 25.829 23.6445 25.6142C23.6445 25.3994 23.5156 25.1845 23.3008 25.0986C22.8711 24.9267 22.4844 24.6259 22.1406 24.2822C20.5508 22.7353 20.5508 20.1572 22.0977 18.6103L22.1406 18.5673L25.5352 15.1728C27.125 13.583 29.6602 13.583 31.25 15.1728C32.8398 16.7626 32.8398 19.2978 31.25 20.8876C31.25 20.8876 28.7148 23.4228 28.0273 24.1103C27.8984 24.2392 27.8555 24.4111 27.8555 24.54C27.8984 24.7548 27.8984 24.9697 27.8984 25.1845C27.9414 25.6142 28.457 25.829 28.8008 25.5283C28.8438 25.4853 28.8867 25.4423 28.9297 25.3994L32.3242 21.9619C34.5156 19.8134 34.5156 16.247 32.3242 14.0986C30.1758 11.9072 26.6094 11.9072 24.4609 14.0986L21.0234 17.4931C18.875 19.6416 18.875 23.208 21.0234 25.3994Z" fill="white"/>
</g>
<defs>
<clipPath id="clip0_2641_161839">
<rect width="46" height="45" fill="white" transform="translate(0.5 0.671875)"/>
</clipPath>
</defs>
</svg>
