<svg width="88" height="66" viewBox="0 0 88 66" fill="none" xmlns="http://www.w3.org/2000/svg">
<path d="M1.20115e-08 8.24703C1.20115e-08 6.05978 0.869194 3.96212 2.41637 2.4155C3.96354 0.868882 6.06196 0 8.25 0H57.75C59.938 0 62.0365 0.868882 63.5836 2.4155C65.1308 3.96212 66 6.05978 66 8.24703V16.4941H71.61C72.8461 16.4952 74.0661 16.7739 75.1799 17.3097C76.2937 17.8455 77.2729 18.6246 78.045 19.5895L86.1905 29.7608C87.3625 31.2243 88.0007 33.0433 88 34.9179V46.7332C88 48.9204 87.1308 51.0181 85.5836 52.5647C84.0365 54.1113 81.938 54.9802 79.75 54.9802H77C77 57.8966 75.8411 60.6934 73.7782 62.7556C71.7153 64.8178 68.9174 65.9763 66 65.9763C63.0826 65.9763 60.2847 64.8178 58.2218 62.7556C56.1589 60.6934 55 57.8966 55 54.9802H27.5C27.5032 56.4459 27.2132 57.8974 26.6471 59.2495C26.081 60.6015 25.2502 61.8268 24.2036 62.8532C23.1569 63.8797 21.9156 64.6866 20.5525 65.2266C19.1894 65.7666 17.7321 66.0287 16.2662 65.9975C14.8003 65.9664 13.3555 65.6426 12.0166 65.0452C10.6777 64.4478 9.47175 63.5888 8.46971 62.5188C7.46768 61.4488 6.68974 60.1894 6.18164 58.8145C5.67354 57.4397 5.44552 55.9771 5.511 54.5129C3.89976 53.946 2.50428 52.8931 1.51714 51.4996C0.530011 50.1061 -9.21358e-05 48.4407 1.20115e-08 46.7332L1.20115e-08 8.24703ZM7.117 49.2403C8.11246 47.6142 9.51372 46.2748 11.1833 45.3534C12.8529 44.432 14.7334 43.9604 16.6403 43.9848C18.5473 44.0092 20.4151 44.5288 22.0605 45.4926C23.706 46.4563 25.0725 47.8312 26.026 49.4822H56.474C57.4394 47.8107 58.8279 46.4227 60.5 45.4576V8.24703C60.5 7.51795 60.2103 6.81873 59.6945 6.30319C59.1788 5.78765 58.4793 5.49802 57.75 5.49802H8.25C7.52065 5.49802 6.82118 5.78765 6.30546 6.30319C5.78973 6.81873 5.5 7.51795 5.5 8.24703V46.7332C5.49957 47.2623 5.65191 47.7803 5.93874 48.2251C6.22556 48.6698 6.63469 49.0223 7.117 49.2403ZM66 43.9842C67.9309 43.9842 69.8277 44.4923 71.4998 45.4574C73.172 46.4225 74.5606 47.8106 75.526 49.4822H79.75C80.4793 49.4822 81.1788 49.1926 81.6945 48.677C82.2103 48.1615 82.5 47.4623 82.5 46.7332V34.9124C82.4989 34.2886 82.2855 33.6837 81.895 33.1971L73.755 23.0257C73.4978 22.7038 73.1715 22.4437 72.8002 22.2648C72.4289 22.0859 72.0222 21.9927 71.61 21.9921H66V43.9842ZM16.5 49.4822C15.0413 49.4822 13.6424 50.0615 12.6109 51.0925C11.5795 52.1236 11 53.5221 11 54.9802C11 56.4384 11.5795 57.8368 12.6109 58.8679C13.6424 59.899 15.0413 60.4782 16.5 60.4782C17.9587 60.4782 19.3576 59.899 20.3891 58.8679C21.4205 57.8368 22 56.4384 22 54.9802C22 53.5221 21.4205 52.1236 20.3891 51.0925C19.3576 50.0615 17.9587 49.4822 16.5 49.4822ZM66 49.4822C64.5413 49.4822 63.1424 50.0615 62.1109 51.0925C61.0795 52.1236 60.5 53.5221 60.5 54.9802C60.5 56.4384 61.0795 57.8368 62.1109 58.8679C63.1424 59.899 64.5413 60.4782 66 60.4782C67.4587 60.4782 68.8576 59.899 69.8891 58.8679C70.9205 57.8368 71.5 56.4384 71.5 54.9802C71.5 53.5221 70.9205 52.1236 69.8891 51.0925C68.8576 50.0615 67.4587 49.4822 66 49.4822Z" fill="white"/>
</svg>
