<svg width="21" height="21" viewBox="0 0 21 21" fill="none" xmlns="http://www.w3.org/2000/svg">
<g clip-path="url(#clip0_2550_620)">
<path d="M20.6719 10.5C20.6719 4.88086 16.1192 0.328125 10.5 0.328125C4.88086 0.328125 0.328125 4.88086 0.328125 10.5C0.328125 15.5859 4.01953 19.8105 8.90041 20.5488V13.4531H6.31641V10.5H8.90041V8.28516C8.90041 5.74219 10.4179 4.30664 12.7148 4.30664C13.8633 4.30664 15.0117 4.51172 15.0117 4.51172V7.01367H13.7402C12.4688 7.01367 12.0585 7.79297 12.0585 8.61328V10.5H14.8886L14.4375 13.4531H12.0585V20.5488C16.9395 19.8105 20.6719 15.5859 20.6719 10.5Z" fill="#E85D46"/>
</g>
<defs>
<clipPath id="clip0_2550_620">
<rect width="21" height="21" fill="white"/>
</clipPath>
</defs>
</svg>
