<svg width="20" height="21" viewBox="0 0 20 21" fill="none" xmlns="http://www.w3.org/2000/svg">
<g clip-path="url(#clip0_2550_614)">
<path d="M19.6875 10.5C19.6875 4.88086 15.3516 0.328125 10 0.328125C4.64843 0.328125 0.3125 4.88086 0.3125 10.5C0.3125 14.8477 2.85157 18.498 6.44532 19.9746C6.36718 19.1953 6.28907 17.9648 6.48438 17.0625C6.67968 16.2832 7.61718 12.0176 7.61718 12.0176C7.61718 12.0176 7.34375 11.4023 7.34375 10.5C7.34375 9.10542 8.125 8.03906 9.10158 8.03906C9.92183 8.03906 10.3125 8.69531 10.3125 9.47459C10.3125 10.3359 9.76567 11.6484 9.49217 12.879C9.29683 13.8633 10 14.6835 10.9375 14.6835C12.6562 14.6835 13.9843 12.7969 13.9843 10.0489C13.9843 7.58789 12.3047 5.90625 9.96092 5.90625C7.1875 5.90625 5.58593 8.08008 5.58593 10.2949C5.58593 11.1973 5.89843 12.1406 6.28907 12.6328C6.36718 12.7148 6.36718 12.8379 6.36718 12.9199C6.28907 13.248 6.09375 13.9453 6.09375 14.0683C6.05468 14.2734 5.9375 14.3145 5.74218 14.2324C4.53125 13.6172 3.78907 11.7715 3.78907 10.254C3.78907 7.05469 6.01562 4.10156 10.1953 4.10156C13.5547 4.10156 16.1718 6.64453 16.1718 10.0078C16.1718 13.4942 14.0625 16.3242 11.1328 16.3242C10.1562 16.3242 9.21875 15.791 8.90625 15.1348C8.90625 15.1348 8.4375 17.1035 8.32032 17.5547C8.08593 18.4571 7.5 19.5645 7.10938 20.2207C8.00782 20.5488 8.98433 20.6719 10 20.6719C15.3516 20.6719 19.6875 16.1192 19.6875 10.5Z" fill="#E85D46"/>
</g>
<defs>
<clipPath id="clip0_2550_614">
<rect width="20" height="21" fill="white"/>
</clipPath>
</defs>
</svg>
