<svg width="19" height="21" viewBox="0 0 19 21" fill="none" xmlns="http://www.w3.org/2000/svg">
<g clip-path="url(#clip0_2550_610)">
<path d="M18.5682 8.61328V5.04492C18.5277 5.04492 18.5277 5.04492 18.5277 5.04492C17.5562 5.04492 16.6251 4.75781 15.8559 4.22461C14.7224 3.48633 13.9127 2.29688 13.6698 0.943355C13.5889 0.65625 13.5889 0.369141 13.5889 0.0820312C13.5889 0.0410156 13.5889 0.0410156 13.5889 0H10.0264V14.3554C10.0264 16.0371 8.6499 17.4317 6.99012 17.4317C5.33033 17.4317 3.9539 16.0371 3.9539 14.3554C3.9539 12.6739 5.33033 11.2793 6.99012 11.2793C7.31399 11.2793 7.59737 11.3203 7.92124 11.4433V7.75196C7.59737 7.71094 7.31399 7.66992 6.99012 7.66992C3.34666 7.66992 0.431885 10.6641 0.431885 14.3554C0.431885 18.0469 3.34666 21 6.99012 21C10.6336 21 13.5889 18.0469 13.5889 14.3554V7.01367C14.9652 8.03906 16.6656 8.61328 18.5277 8.61328H18.5682Z" fill="#E85D46"/>
</g>
<defs>
<clipPath id="clip0_2550_610">
<rect width="19" height="21" fill="white"/>
</clipPath>
</defs>
</svg>
