<svg width="22" height="17" viewBox="0 0 22 17" fill="none" xmlns="http://www.w3.org/2000/svg">
<g clip-path="url(#clip0_2550_612)">
<path d="M19.3737 4.35586C20.1987 3.75821 20.9412 3.04101 21.5187 2.2043C20.7762 2.52305 19.9099 2.76211 19.0437 2.8418C19.9512 2.32383 20.6112 1.52696 20.9412 0.530859C20.1162 1.00898 19.1674 1.36758 18.2187 1.5668C17.3937 0.730078 16.2799 0.251953 15.0425 0.251953C12.6499 0.251953 10.7112 2.12461 10.7112 4.43555C10.7112 4.7543 10.7525 5.07305 10.8349 5.3918C7.2462 5.19258 4.02869 3.51914 1.88369 1.00898C1.51244 1.60664 1.3062 2.32383 1.3062 3.12071C1.3062 4.55508 2.04869 5.83008 3.24494 6.58711C2.54369 6.54726 1.84244 6.38789 1.26494 6.06914V6.10898C1.26494 8.14101 2.74994 9.81448 4.72994 10.2129C4.39994 10.2926 3.98744 10.3722 3.6162 10.3722C3.32744 10.3722 3.07994 10.3324 2.7912 10.2926C3.32744 11.966 4.9362 13.1614 6.83369 13.2011C5.34869 14.3168 3.49244 14.9941 1.4712 14.9941C1.09994 14.9941 0.769941 14.9543 0.439941 14.9145C2.33744 16.1097 4.6062 16.7871 7.0812 16.7871C15.0425 16.7871 19.3737 10.452 19.3737 4.91367C19.3737 4.71446 19.3737 4.55508 19.3737 4.35586Z" fill="#E85D46"/>
</g>
<defs>
<clipPath id="clip0_2550_612">
<rect width="22" height="17" fill="white"/>
</clipPath>
</defs>
</svg>
