<svg width="19" height="19" viewBox="0 0 19 19" fill="none" xmlns="http://www.w3.org/2000/svg">
<g clip-path="url(#clip0_2550_618)">
<path d="M17.2728 0.431641H1.68685C0.998646 0.431641 0.431885 1.03888 0.431885 1.76758V17.2726C0.431885 18.0013 0.998646 18.568 1.68685 18.568H17.2728C17.961 18.568 18.5682 18.0013 18.5682 17.2726V1.76758C18.5682 1.03888 17.961 0.431641 17.2728 0.431641ZM5.89708 15.9771H3.22521V7.35422H5.89708V15.9771ZM4.56115 6.13974C3.67052 6.13974 2.98231 5.45153 2.98231 4.60138C2.98231 3.75124 3.67052 3.02255 4.56115 3.02255C5.41128 3.02255 6.0995 3.75124 6.0995 4.60138C6.0995 5.45153 5.41128 6.13974 4.56115 6.13974ZM15.9773 15.9771H13.265V11.7669C13.265 10.7953 13.265 9.49982 11.8885 9.49982C10.4717 9.49982 10.2692 10.5928 10.2692 11.7264V15.9771H7.59737V7.35422H10.1478V8.52823H10.1883C10.5527 7.84002 11.4432 7.11133 12.7387 7.11133C15.451 7.11133 15.9773 8.9331 15.9773 11.2406V15.9771Z" fill="#E85D46"/>
</g>
<defs>
<clipPath id="clip0_2550_618">
<rect width="19" height="19" fill="white"/>
</clipPath>
</defs>
</svg>
