<svg width="23" height="15" viewBox="0 0 23 15" fill="none" xmlns="http://www.w3.org/2000/svg">
<g clip-path="url(#clip0_2550_616)">
<path d="M21.922 2.38282C21.6823 1.44532 20.9237 0.703125 20.0053 0.46875C18.2883 0 11.5001 0 11.5001 0C11.5001 0 4.67193 0 2.95492 0.46875C2.03651 0.703125 1.27783 1.44532 1.03825 2.38282C0.559082 4.02343 0.559082 7.53907 0.559082 7.53907C0.559082 7.53907 0.559082 11.0157 1.03825 12.6953C1.27783 13.6328 2.03651 14.3359 2.95492 14.5703C4.67193 15 11.5001 15 11.5001 15C11.5001 15 18.2883 15 20.0053 14.5703C20.9237 14.3359 21.6823 13.6328 21.922 12.6953C22.4011 11.0157 22.4011 7.53907 22.4011 7.53907C22.4011 7.53907 22.4011 4.02343 21.922 2.38282ZM9.26394 10.7032V4.375L14.934 7.53907L9.26394 10.7032Z" fill="#E85D46"/>
</g>
<defs>
<clipPath id="clip0_2550_616">
<rect width="23" height="15" fill="white"/>
</clipPath>
</defs>
</svg>
