<svg width="19" height="19" viewBox="0 0 19 19" fill="none" xmlns="http://www.w3.org/2000/svg">
<g clip-path="url(#clip0_2550_622)">
<path d="M9.50004 4.84455C6.90914 4.84455 4.84451 6.94967 4.84451 9.50009C4.84451 12.091 6.90914 14.1556 9.50004 14.1556C12.0504 14.1556 14.1556 12.091 14.1556 9.50009C14.1556 6.94967 12.0504 4.84455 9.50004 4.84455ZM9.50004 12.5363C7.84024 12.5363 6.46383 11.2004 6.46383 9.50009C6.46383 7.84028 7.79976 6.50435 9.50004 6.50435C11.1599 6.50435 12.4958 7.84028 12.4958 9.50009C12.4958 11.2004 11.1599 12.5363 9.50004 12.5363ZM15.4106 4.68262C15.4106 4.07537 14.9247 3.58958 14.3175 3.58958C13.7103 3.58958 13.2245 4.07537 13.2245 4.68262C13.2245 5.28986 13.7103 5.77566 14.3175 5.77566C14.9247 5.77566 15.4106 5.28986 15.4106 4.68262ZM18.4872 5.77566C18.4063 4.31827 18.0824 3.02282 17.0299 1.97026C15.9773 0.917702 14.6819 0.593839 13.2245 0.512873C11.7266 0.431907 7.233 0.431907 5.73513 0.512873C4.27774 0.593839 3.02277 0.917702 1.92974 1.97026C0.877171 3.02282 0.553311 4.31827 0.472346 5.77566C0.39138 7.27353 0.39138 11.7671 0.472346 13.265C0.553311 14.7224 0.877171 15.9774 1.92974 17.0704C3.02277 18.123 4.27774 18.4468 5.73513 18.5278C7.233 18.6088 11.7266 18.6088 13.2245 18.5278C14.6819 18.4468 15.9773 18.123 17.0299 17.0704C18.0824 15.9774 18.4063 14.7224 18.4872 13.265C18.5682 11.7671 18.5682 7.27353 18.4872 5.77566ZM16.544 14.8438C16.2607 15.6535 15.6129 16.2607 14.8438 16.5846C13.6293 17.0704 10.7955 16.949 9.50004 16.949C8.1641 16.949 5.3303 17.0704 4.15629 16.5846C3.34664 16.2607 2.7394 15.6535 2.41553 14.8438C1.92974 13.6698 2.05118 10.836 2.05118 9.50009C2.05118 8.20463 1.92974 5.37083 2.41553 4.15634C2.7394 3.38717 3.34664 2.77992 4.15629 2.45605C5.3303 1.97026 8.1641 2.09171 9.50004 2.09171C10.7955 2.09171 13.6293 1.97026 14.8438 2.45605C15.6129 2.73944 16.2202 3.38717 16.544 4.15634C17.0299 5.37083 16.9084 8.20463 16.9084 9.50009C16.9084 10.836 17.0299 13.6698 16.544 14.8438Z" fill="#E85D46"/>
</g>
<defs>
<clipPath id="clip0_2550_622">
<rect width="19" height="19" fill="white"/>
</clipPath>
</defs>
</svg>
